<?xml version="1.0" encoding="UTF-8"?>
<svg width="600" height="600" version="1.1" viewBox="0 0 158.75 158.75" xmlns="http://www.w3.org/2000/svg">
 <text x="79.337608" y="132.21318" style="fill:#b3b3b3;font-size:18.755px;stroke-width:1.5629;text-align:center;text-anchor:middle" xml:space="preserve"><tspan x="79.337608" y="132.21318" style="fill:#b3b3b3;font-family:'Segoe UI';stroke-width:1.5629;text-align:center;text-anchor:middle">[MISSING IMAGE]</tspan></text>
 <g transform="matrix(.40996 0 0 .40996 29.243 12.652)">
  <path d="m224.82 23.935h-217.32c-4.142 0-7.5 3.357-7.5 7.5v169.45c0 4.143 3.358 7.5 7.5 7.5h217.32c4.142 0 7.5-3.357 7.5-7.5v-169.45c0-4.142-3.358-7.5-7.5-7.5zm-7.5 15.001v143.09l-59.995-63.799c-1.417-1.507-3.394-2.362-5.462-2.362h-1e-3c-2.068 0-4.044 0.855-5.462 2.36l-25.62 27.227-34.349-45.291c-1.418-1.87-3.629-2.968-5.976-2.968h-6e-3c-2.349 2e-3 -4.561 1.104-5.977 2.978l-59.474 78.689v-139.92zm-9.907 154.45h-184.59l57.643-76.269 33.722 44.465c1.334 1.759 3.374 2.84 5.578 2.957 2.201 0.11 4.348-0.742 5.86-2.35l26.234-27.879z" style="fill:#b3b3b3;stroke-width:.99903"/>
  <path d="m155.24 101.68c13.597 0 24.658-11.061 24.658-24.656 0-13.597-11.061-24.658-24.658-24.658-13.596 0-24.656 11.062-24.656 24.658 0 13.595 11.061 24.656 24.656 24.656zm0-34.315c5.326 0 9.658 4.333 9.658 9.658 0 5.324-4.332 9.656-9.658 9.656-5.325 0-9.656-4.332-9.656-9.656 0-5.325 4.332-9.658 9.656-9.658z" style="fill:#b3b3b3"/>
 </g>
</svg>
