<?xml version="1.0" encoding="UTF-8" standalone="no"?>
<!-- Created with Inkscape (http://www.inkscape.org/) -->

<svg
   width="600"
   height="600"
   viewBox="0 0 158.75 158.75"
   version="1.1"
   id="svg5"
   inkscape:version="1.2.1 (9c6d41e410, 2022-07-14)"
   sodipodi:docname="cover.svg"
   xmlns:inkscape="http://www.inkscape.org/namespaces/inkscape"
   xmlns:sodipodi="http://sodipodi.sourceforge.net/DTD/sodipodi-0.dtd"
   xmlns="http://www.w3.org/2000/svg"
   xmlns:svg="http://www.w3.org/2000/svg">
  <sodipodi:namedview
     id="namedview7"
     pagecolor="#ffffff"
     bordercolor="#000000"
     borderopacity="0.25"
     inkscape:showpageshadow="2"
     inkscape:pageopacity="0"
     inkscape:pagecheckerboard="0"
     inkscape:deskcolor="#d1d1d1"
     inkscape:document-units="mm"
     showgrid="false"
     showguides="true"
     inkscape:zoom="1.0444209"
     inkscape:cx="156.54608"
     inkscape:cy="299.6876"
     inkscape:window-width="1920"
     inkscape:window-height="1009"
     inkscape:window-x="-8"
     inkscape:window-y="-8"
     inkscape:window-maximized="1"
     inkscape:current-layer="layer1" />
  <defs
     id="defs2" />
  <g
     inkscape:label="Layer 1"
     inkscape:groupmode="layer"
     id="layer1">
    <text
       xml:space="preserve"
       style="font-size:18.7549px;text-align:center;text-anchor:middle;fill:#b3b3b3;fill-opacity:1;stroke-width:1.5629"
       x="79.337608"
       y="132.21318"
       id="text1516"><tspan
         sodipodi:role="line"
         id="tspan1514"
         style="font-style:normal;font-variant:normal;font-weight:normal;font-stretch:normal;font-family:'Segoe UI';-inkscape-font-specification:'Segoe UI';text-align:center;text-anchor:middle;fill:#b3b3b3;fill-opacity:1;stroke-width:1.5629"
         x="79.337608"
         y="132.21318">[MISSING IMAGE]</tspan></text>
    <g
       id="g2145"
       transform="matrix(0.40996405,0,0,0.40996405,29.242588,12.652263)">
	<path
   d="M 224.822,23.935 H 7.5 c -4.142,0 -7.5,3.357 -7.5,7.5 v 169.451 c 0,4.143 3.358,7.5 7.5,7.5 h 217.322 c 4.142,0 7.5,-3.357 7.5,-7.5 V 31.435 c 0,-4.142 -3.358,-7.5 -7.5,-7.5 z m -7.5,15.001 v 143.091 l -59.995,-63.799 c -1.417,-1.507 -3.394,-2.362 -5.462,-2.362 -0.001,0 -0.001,0 -0.001,0 -2.068,0 -4.044,0.855 -5.462,2.36 l -25.62,27.227 -34.349,-45.291 c -1.418,-1.87 -3.629,-2.968 -5.976,-2.968 -0.002,0 -0.004,0 -0.006,0 -2.349,0.002 -4.561,1.104 -5.977,2.978 L 15,178.861 V 38.936 Z m -9.907,154.451 H 22.824 l 57.643,-76.269 33.722,44.465 c 1.334,1.759 3.374,2.84 5.578,2.957 2.201,0.11 4.348,-0.742 5.86,-2.35 l 26.234,-27.879 z"
   id="path2141"
   style="opacity:1;fill:#b3b3b3;fill-opacity:1;stroke-width:0.999027;stroke-dasharray:none" />

	<path
   d="m 155.237,101.682 c 13.597,0 24.658,-11.061 24.658,-24.656 0,-13.597 -11.061,-24.658 -24.658,-24.658 -13.596,0 -24.656,11.062 -24.656,24.658 0,13.595 11.061,24.656 24.656,24.656 z m 0,-34.315 c 5.326,0 9.658,4.333 9.658,9.658 0,5.324 -4.332,9.656 -9.658,9.656 -5.325,0 -9.656,-4.332 -9.656,-9.656 0,-5.325 4.332,-9.658 9.656,-9.658 z"
   id="path2143"
   style="fill:#b3b3b3;fill-opacity:1" />

</g>
    <g
       id="g2147"
       transform="matrix(0.47746467,0,0,0.47746467,21.705082,-5.1764957)">
</g>
    <g
       id="g2149"
       transform="matrix(0.47746467,0,0,0.47746467,21.705082,-5.1764957)">
</g>
    <g
       id="g2151"
       transform="matrix(0.47746467,0,0,0.47746467,21.705082,-5.1764957)">
</g>
    <g
       id="g2153"
       transform="matrix(0.47746467,0,0,0.47746467,21.705082,-5.1764957)">
</g>
    <g
       id="g2155"
       transform="matrix(0.47746467,0,0,0.47746467,21.705082,-5.1764957)">
</g>
    <g
       id="g2157"
       transform="matrix(0.47746467,0,0,0.47746467,21.705082,-5.1764957)">
</g>
    <g
       id="g2159"
       transform="matrix(0.47746467,0,0,0.47746467,21.705082,-5.1764957)">
</g>
    <g
       id="g2161"
       transform="matrix(0.47746467,0,0,0.47746467,21.705082,-5.1764957)">
</g>
    <g
       id="g2163"
       transform="matrix(0.47746467,0,0,0.47746467,21.705082,-5.1764957)">
</g>
    <g
       id="g2165"
       transform="matrix(0.47746467,0,0,0.47746467,21.705082,-5.1764957)">
</g>
    <g
       id="g2167"
       transform="matrix(0.47746467,0,0,0.47746467,21.705082,-5.1764957)">
</g>
    <g
       id="g2169"
       transform="matrix(0.47746467,0,0,0.47746467,21.705082,-5.1764957)">
</g>
    <g
       id="g2171"
       transform="matrix(0.47746467,0,0,0.47746467,21.705082,-5.1764957)">
</g>
    <g
       id="g2173"
       transform="matrix(0.47746467,0,0,0.47746467,21.705082,-5.1764957)">
</g>
    <g
       id="g2175"
       transform="matrix(0.47746467,0,0,0.47746467,21.705082,-5.1764957)">
</g>
  </g>
</svg>
