<?xml version="1.0" encoding="UTF-8"?>
<svg style="enable-background:new 0 0 106.86 122.88" version="1.1" viewBox="0 0 106.86 122.88" xml:space="preserve" xmlns="http://www.w3.org/2000/svg"><style type="text/css">.st0{fill-rule:evenodd;clip-rule:evenodd;}</style><g transform="matrix(.63834 0 0 .63834 19.322 22.22)" style="fill:#e0e0e0"><path class="st0" d="m39.62 64.58c-1.46 0-2.64-1.41-2.64-3.14 0-1.74 1.18-3.14 2.64-3.14h34.89c1.46 0 2.64 1.41 2.64 3.14 0 1.74-1.18 3.14-2.64 3.14h-34.89zm7.15 52c1.74 0 3.15 1.41 3.15 3.15s-1.41 3.15-3.15 3.15h-39.44c-2.02 0-3.85-0.82-5.18-2.15s-2.15-3.16-2.15-5.18v-108.22c0-2.02 0.82-3.85 2.15-5.18s3.16-2.15 5.18-2.15h90.02c2.02 0 3.85 0.83 5.18 2.15 1.33 1.33 2.15 3.16 2.15 5.18v50.14c0 1.74-1.41 3.15-3.15 3.15s-3.15-1.41-3.15-3.15v-50.14c0-0.28-0.12-0.54-0.31-0.72-0.19-0.19-0.44-0.31-0.72-0.31h-90.02c-0.28 0-0.54 0.12-0.73 0.3-0.18 0.2-0.3 0.45-0.3 0.73v108.21c0 0.28 0.12 0.54 0.3 0.72 0.19 0.19 0.45 0.31 0.73 0.31h39.44zm51.93-42.24c-0.51-0.49-1.1-0.72-1.78-0.71s-1.26 0.27-1.74 0.78l-3.91 4.07 10.97 10.59 3.95-4.11c0.47-0.48 0.67-1.1 0.66-1.78-0.01-0.67-0.25-1.28-0.73-1.74l-7.42-7.1zm-20.49 39.67c-1.45 0.46-2.89 0.94-4.33 1.41-1.45 0.48-2.89 0.97-4.33 1.45-3.41 1.12-5.32 1.74-5.72 1.85-0.39 0.12-0.16-1.48 0.7-4.81l2.71-10.45 20.55-21.38 10.96 10.55-20.54 21.38zm-38.59-27.06c-1.46 0-2.65-1.43-2.65-3.19s1.19-3.19 2.65-3.19h17.19c1.46 0 2.65 1.43 2.65 3.19s-1.19 3.19-2.65 3.19h-17.19zm0-44.69c-1.46 0-2.64-1.41-2.64-3.14 0-1.74 1.18-3.14 2.64-3.14h34.89c1.46 0 2.64 1.41 2.64 3.14 0 1.74-1.18 3.14-2.64 3.14h-34.89zm-15.14 37.2c2.06 0 3.72 1.67 3.72 3.72 0 2.06-1.67 3.72-3.72 3.72-2.06 0-3.72-1.67-3.72-3.72s1.67-3.72 3.72-3.72zm0-22.02c2.06 0 3.72 1.67 3.72 3.72 0 2.06-1.67 3.72-3.72 3.72-2.06 0-3.72-1.67-3.72-3.72s1.67-3.72 3.72-3.72zm0-22.02c2.06 0 3.72 1.67 3.72 3.72 0 2.06-1.67 3.72-3.72 3.72-2.06 0-3.72-1.67-3.72-3.72 0-2.06 1.67-3.72 3.72-3.72z" style="fill:#e0e0e0"/></g></svg>
