<?xml version="1.0" encoding="UTF-8" standalone="no"?>
<svg
   id="Layer_1"
   data-name="Layer 1"
   viewBox="0 0 512 512"
   version="1.1"
   sodipodi:docname="play_random.svg"
   inkscape:version="1.2.1 (9c6d41e410, 2022-07-14)"
   xmlns:inkscape="http://www.inkscape.org/namespaces/inkscape"
   xmlns:sodipodi="http://sodipodi.sourceforge.net/DTD/sodipodi-0.dtd"
   xmlns="http://www.w3.org/2000/svg"
   xmlns:svg="http://www.w3.org/2000/svg"
   xmlns:rdf="http://www.w3.org/1999/02/22-rdf-syntax-ns#"
   xmlns:cc="http://creativecommons.org/ns#"
   xmlns:dc="http://purl.org/dc/elements/1.1/">
  <defs
     id="defs9">
    <linearGradient
       id="linear-gradient"
       x1="256"
       y1="512"
       x2="256"
       gradientUnits="userSpaceOnUse"
       gradientTransform="matrix(0.8297775,0,0,1,163.7147,2.1716401)">
      <stop
         offset="0"
         stop-color="#231f20"
         id="stop115" />
      <stop
         offset="1"
         stop-color="#58595b"
         id="stop117" />
    </linearGradient>
  </defs>
  <sodipodi:namedview
     id="namedview7"
     pagecolor="#ffffff"
     bordercolor="#000000"
     borderopacity="0.25"
     inkscape:showpageshadow="2"
     inkscape:pageopacity="0.0"
     inkscape:pagecheckerboard="0"
     inkscape:deskcolor="#d1d1d1"
     showgrid="false"
     inkscape:zoom="0.80957031"
     inkscape:cx="-54.349819"
     inkscape:cy="235.92762"
     inkscape:window-width="1920"
     inkscape:window-height="1009"
     inkscape:window-x="-8"
     inkscape:window-y="-8"
     inkscape:window-maximized="1"
     inkscape:current-layer="Layer_1" />
  <title
     id="title2">play-glyph</title>
  <path
     d="M 50.223042,512 C 38.947048,512 30.11,498.14 30.11,480.44 V 31.55 C 30.11661,13.86 38.947048,0 50.229651,0 A 21.772054,32.94 0 0 1 61.102459,4.52 L 318.01798,229 c 6.69553,5.85 10.69435,16 10.69435,27 0,11 -3.96577,21.2 -10.69435,27 L 61.102459,507.48 A 21.758834,32.92 0 0 1 50.229651,512 Z"
     fill="#434040"
     id="path4"
     style="stroke-width:0.812995" />
  <g
     id="g314">
    <path
       d="m 505.58302,128.23164 c 0,16.73 -2.68018,33.07 -9.27691,47.92 a 123.70323,149.08 0 0 1 -21.34188,34.61 c -13.45069,15.83 -27.89712,31.08 -41.90376,46.2 a 152.44672,183.72 0 0 0 -12.76198,15.29 46.583709,56.14 0 0 0 -6.42248,10.81 l -0.0581,0.18 a 44.086078,53.13 0 0 0 -3.26103,9.79 c -1.51019,6.33 -2.68848,13 -3.85016,19.45 -3.64273,23.78 -15.86535,37.54 -36.25298,37.54 -10.0735,0 -19.08489,-4 -26.38693,-12.35 -8.25628,-9.53 -10.93646,-22.65 -10.93646,-36 0,-15.68 1.81721,-31.64 6.93693,-46.15 a 97.714598,117.76 0 0 1 18.22192,-34.35 c 5.03675,-6.48 10.90327,-12.45 16.52087,-18.18 6.63822,-6.77 13.31793,-13.43 19.83168,-20.42 9.95733,-10.7 31.53155,-34.41 29.25796,-52.41 -2.04956,-16.78 -8.5799,-31.52 -21.57422,-39.17 -13.91537,-8.18 -31.01708,-5.82 -44.65862,2 -16.00641,9.18 -27.9967,25.87 -32.63515,46.63 -5.15292,23.29 -17.74065,39.73 -38.58466,39.73 a 38.169765,46 0 0 1 -28.30371,-14.34 c -6.93694,-8.64 -11.47582,-19 -11.47582,-31.26 0,-22.08 6.41418,-42.69 16.0396,-61.23 11.36795,-21.77 27.52372,-38.23 46.13563,-50.49 21.65719,-14.2399999 45.67095,-19.8599999 70.23236,-19.8599999 22.69442,0 45.18969,4.67 65.70179,16.6299999 18.2551,10.49 33.64747,25.44 44.87436,45.83 a 94.544848,113.94 0 0 1 15.93173,63.6 z m -135.7433,256.15 q -22.67782,0 -39.41443,19.35 -16.73661,19.35 -16.71172,45.88 0,26.54 16.71172,45.54 16.71172,19 39.41443,19 22.40399,0 39.14061,-19 16.73661,-19 16.71171,-45.54 0,-26.51 -16.71171,-45.88 -16.71172,-19.37 -39.14061,-19.35 z"
       fill="url(#linear-gradient)"
       id="path124"
       style="fill:url(#linear-gradient);stroke-width:0.910921" />
  </g>
  <metadata
     id="metadata316">
    <rdf:RDF>
      <cc:Work
         rdf:about="">
        <dc:title>play-glyph</dc:title>
      </cc:Work>
    </rdf:RDF>
  </metadata>
</svg>
